<svg xmlns="http://www.w3.org/2000/svg" style="display:none">

  <symbol id="icon-fiscal" viewBox="0 0 24 24">
    <path d="M6 2h9l4 4v16H6z" fill="none" stroke="currentColor" stroke-width="1.4" stroke-linejoin="round"/>
    <path d="M15 2v4h4" fill="none" stroke="currentColor" stroke-width="1.4" stroke-linejoin="round"/>
    <path d="M9 11h6M9 14h6M9 17h4" stroke="currentColor" stroke-width="1.4" stroke-linecap="round"/>
  </symbol>

  <symbol id="icon-contable" viewBox="0 0 24 24">
    <path d="M4 4h11l5 5v11H4z" fill="none" stroke="currentColor" stroke-width="1.4" stroke-linejoin="round"/>
    <path d="M8 10h8M8 13h8M8 16h5" stroke="currentColor" stroke-width="1.4" stroke-linecap="round"/>
    <circle cx="17" cy="16.5" r="0.9" fill="currentColor" stroke="none"/>
  </symbol>

  <symbol id="icon-organizacion" viewBox="0 0 24 24">
    <path d="M3 6h6l2 2h10v11H3z" fill="none" stroke="currentColor" stroke-width="1.4" stroke-linejoin="round"/>
    <path d="M3 6v13h18" fill="none" stroke="currentColor" stroke-width="1.4" stroke-linejoin="round" opacity="0"/>
  </symbol>

  <symbol id="icon-dashboards" viewBox="0 0 24 24">
    <path d="M4 20V10M11 20V4M18 20v-7" stroke="currentColor" stroke-width="1.6" stroke-linecap="round"/>
    <path d="M2.5 20.5h19" stroke="currentColor" stroke-width="1.4" stroke-linecap="round"/>
  </symbol>

  <symbol id="icon-automatizacion" viewBox="0 0 24 24">
    <path d="M12 8.5a3.5 3.5 0 1 0 0 7 3.5 3.5 0 0 0 0-7z" fill="none" stroke="currentColor" stroke-width="1.4"/>
    <path d="M12 2.5v2.4M12 19.1v2.4M4.6 12H2.2M21.8 12h-2.4M6 6l1.7 1.7M16.3 16.3 18 18M18 6l-1.7 1.7M7.7 16.3 6 18" stroke="currentColor" stroke-width="1.4" stroke-linecap="round"/>
  </symbol>

  <symbol id="icon-asesorias" viewBox="0 0 24 24">
    <circle cx="12" cy="12" r="9" fill="none" stroke="currentColor" stroke-width="1.4"/>
    <path d="M15.5 8.5 13 13l-4.5 2.5L11 11z" fill="currentColor" stroke="none"/>
  </symbol>

  <symbol id="icon-search" viewBox="0 0 24 24">
    <circle cx="10.5" cy="10.5" r="6.5" fill="none" stroke="currentColor" stroke-width="1.6"/>
    <path d="M20 20 15.2 15.2" stroke="currentColor" stroke-width="1.6" stroke-linecap="round"/>
  </symbol>

  <symbol id="icon-close" viewBox="0 0 24 24">
    <path d="M5 5l14 14M19 5 5 19" stroke="currentColor" stroke-width="1.6" stroke-linecap="round"/>
  </symbol>

  <symbol id="icon-check" viewBox="0 0 24 24">
    <path d="M4 12.5 9.5 18 20 6" fill="none" stroke="currentColor" stroke-width="1.8" stroke-linecap="round" stroke-linejoin="round"/>
  </symbol>

  <symbol id="icon-lock" viewBox="0 0 24 24">
    <rect x="5" y="10.5" width="14" height="10" rx="1.5" fill="none" stroke="currentColor" stroke-width="1.4"/>
    <path d="M8 10.5V7a4 4 0 0 1 8 0v3.5" fill="none" stroke="currentColor" stroke-width="1.4"/>
  </symbol>

</svg>
